# Blender 4.1.1
# www.blender.org
mtllib level.mtl
o Wall
v -1280.000000 0.000000 -768.000000
v -768.000000 0.000000 -768.000000
v -1280.000000 512.000000 -768.000000
v -768.000000 512.000000 -768.000000
vn -0.0000 -0.0000 1.0000
vt 0.000000 0.500000
vt 0.500000 0.500000
vt 0.500000 1.000000
vt 0.000000 1.000000
s 0
usemtl Material
f 1/1/1 2/2/1 4/3/1 3/4/1
o Wall.001
v -768.000000 0.000000 -768.000000
v -256.000000 0.000000 -768.000000
v -768.000000 512.000000 -768.000000
v -256.000000 512.000000 -768.000000
vn -0.0000 -0.0000 1.0000
vt 0.500000 0.500000
vt 1.000000 0.500000
vt 1.000000 1.000000
vt 0.500000 1.000000
s 0
usemtl Material
f 5/5/2 6/6/2 8/7/2 7/8/2
o Wall.003
v 256.000000 0.000000 -768.000000
v 768.000000 0.000000 -768.000000
v 256.000000 512.000000 -768.000000
v 768.000000 512.000000 -768.000000
vn -0.0000 -0.0000 1.0000
vt 0.500000 0.500000
vt 1.000000 0.500000
vt 1.000000 1.000000
vt 0.500000 1.000000
s 0
usemtl Material
f 9/9/3 10/10/3 12/11/3 11/12/3
o Wall.004
v 768.000000 0.000000 -768.000000
v 1280.000000 0.000000 -768.000000
v 768.000000 512.000000 -768.000000
v 1280.000000 512.000000 -768.000000
vn -0.0000 -0.0000 1.0000
vt 0.000000 0.500000
vt 0.500000 0.500000
vt 0.500000 1.000000
vt 0.000000 1.000000
s 0
usemtl Material
f 13/13/4 14/14/4 16/15/4 15/16/4
o Wall.005
v -1280.000000 0.000000 -256.000000
v -1280.000000 0.000000 -768.000000
v -1280.000000 512.000000 -256.000000
v -1280.000000 512.000000 -768.000000
vn 1.0000 -0.0000 -0.0000
vt 0.000000 0.500000
vt 0.500000 0.500000
vt 0.500000 1.000000
vt 0.000000 1.000000
s 0
usemtl Material
f 17/17/5 18/18/5 20/19/5 19/20/5
o Wall.007
v -1280.000000 0.000000 768.000000
v -1280.000000 0.000000 256.000000
v -1280.000000 512.000000 768.000000
v -1280.000000 512.000000 256.000000
vn 1.0000 -0.0000 -0.0000
vt 0.000000 0.500000
vt 0.500000 0.500000
vt 0.500000 1.000000
vt 0.000000 1.000000
s 0
usemtl Material
f 21/21/6 22/22/6 24/23/6 23/24/6
o Wall.009
v -1280.000000 0.000000 1792.000000
v -1280.000000 0.000000 1280.000000
v -1280.000000 512.000000 1792.000000
v -1280.000000 512.000000 1280.000000
vn 1.0000 -0.0000 -0.0000
vt 0.000000 0.500000
vt 0.500000 0.500000
vt 0.500000 1.000000
vt 0.000000 1.000000
s 0
usemtl Material
f 25/25/7 26/26/7 28/27/7 27/28/7
o Wall.010
v -1280.000000 0.000000 2304.000000
v -1280.000000 0.000000 1792.000000
v -1280.000000 512.000000 2304.000000
v -1280.000000 512.000000 1792.000000
vn 1.0000 -0.0000 -0.0000
vt 0.000000 0.500000
vt 0.500000 0.500000
vt 0.500000 1.000000
vt 0.000000 1.000000
s 0
usemtl Material
f 29/29/8 30/30/8 32/31/8 31/32/8
o Door
v -256.000000 0.000000 -768.000000
v 256.000000 0.000000 -768.000000
v -256.000000 512.000000 -768.000000
v 256.000000 512.000000 -768.000000
vn -0.0000 -0.0000 1.0000
vt 0.000000 0.000000
vt 0.500000 0.000000
vt 0.500000 0.500000
vt 0.000000 0.500000
s 0
usemtl Material
f 33/33/9 34/34/9 36/35/9 35/36/9
o Window
v -1280.000000 0.000000 1280.000000
v -1280.000000 0.000000 768.000000
v -1280.000000 512.000000 1280.000000
v -1280.000000 512.000000 768.000000
vn 1.0000 -0.0000 -0.0000
vt 0.500000 0.500000
vt 1.000000 0.500000
vt 1.000000 1.000000
vt 0.500000 1.000000
s 0
usemtl Material
f 37/37/10 38/38/10 40/39/10 39/40/10
o Window.001
v -1280.000000 0.000000 256.000000
v -1280.000000 0.000000 -256.000000
v -1280.000000 512.000000 256.000000
v -1280.000000 512.000000 -256.000000
vn 1.0000 -0.0000 -0.0000
vt 0.500000 0.500000
vt 1.000000 0.500000
vt 1.000000 1.000000
vt 0.500000 1.000000
s 0
usemtl Material
f 41/41/11 42/42/11 44/43/11 43/44/11
o Wall.002
v -768.000000 0.000000 2304.000000
v -1280.000000 0.000000 2304.000000
v -768.000000 512.000000 2304.000000
v -1280.000000 512.000000 2304.000000
vn -0.0000 -0.0000 -1.0000
vt 0.000000 0.500000
vt 0.500000 0.500000
vt 0.500000 1.000000
vt 0.000000 1.000000
s 0
usemtl Material
f 45/45/12 46/46/12 48/47/12 47/48/12
o Wall.006
v -256.000000 0.000000 2304.000000
v -768.000000 0.000000 2304.000000
v -256.000000 512.000000 2304.000000
v -768.000000 512.000000 2304.000000
vn -0.0000 -0.0000 -1.0000
vt 0.000000 0.500000
vt 0.500000 0.500000
vt 0.500000 1.000000
vt 0.000000 1.000000
s 0
usemtl Material
f 49/49/13 50/50/13 52/51/13 51/52/13
o Wall.008
v 256.000000 0.000000 2304.000000
v -256.000000 0.000000 2304.000000
v 256.000000 512.000000 2304.000000
v -256.000000 512.000000 2304.000000
vn -0.0000 -0.0000 -1.0000
vt 0.000000 0.500000
vt 0.500000 0.500000
vt 0.500000 1.000000
vt 0.000000 1.000000
s 0
usemtl Material
f 53/53/14 54/54/14 56/55/14 55/56/14
o Wall.011
v 768.000000 0.000000 2304.000000
v 256.000000 0.000000 2304.000000
v 768.000000 512.000000 2304.000000
v 256.000000 512.000000 2304.000000
vn -0.0000 -0.0000 -1.0000
vt 0.000000 0.500000
vt 0.500000 0.500000
vt 0.500000 1.000000
vt 0.000000 1.000000
s 0
usemtl Material
f 57/57/15 58/58/15 60/59/15 59/60/15
o Wall.012
v 1280.000000 0.000000 2304.000000
v 768.000000 0.000000 2304.000000
v 1280.000000 512.000000 2304.000000
v 768.000000 512.000000 2304.000000
vn -0.0000 -0.0000 -1.0000
vt 0.000000 0.500000
vt 0.500000 0.500000
vt 0.500000 1.000000
vt 0.000000 1.000000
s 0
usemtl Material
f 61/61/16 62/62/16 64/63/16 63/64/16
o Wall.013
v 1279.999878 0.000000 1792.000000
v 1280.000122 0.000000 2304.000000
v 1279.999878 512.000000 1792.000000
v 1280.000122 512.000000 2304.000000
vn -1.0000 -0.0000 -0.0000
vt 0.000000 0.500000
vt 0.500000 0.500000
vt 0.500000 1.000000
vt 0.000000 1.000000
s 0
usemtl Material
f 65/65/17 66/66/17 68/67/17 67/68/17
o Wall.014
v 1279.999878 0.000000 1280.000000
v 1280.000122 0.000000 1792.000000
v 1279.999878 512.000000 1280.000000
v 1280.000122 512.000000 1792.000000
vn -1.0000 -0.0000 -0.0000
vt 0.000000 0.500000
vt 0.500000 0.500000
vt 0.500000 1.000000
vt 0.000000 1.000000
s 0
usemtl Material
f 69/69/18 70/70/18 72/71/18 71/72/18
o Wall.015
v 1279.999878 0.000000 768.000000
v 1280.000122 0.000000 1280.000000
v 1279.999878 512.000000 768.000000
v 1280.000122 512.000000 1280.000000
vn -1.0000 -0.0000 -0.0000
vt 0.000000 0.500000
vt 0.500000 0.500000
vt 0.500000 1.000000
vt 0.000000 1.000000
s 0
usemtl Material
f 73/73/19 74/74/19 76/75/19 75/76/19
o Wall.016
v 1279.999878 0.000000 256.000000
v 1280.000122 0.000000 768.000000
v 1279.999878 512.000000 256.000000
v 1280.000122 512.000000 768.000000
vn -1.0000 -0.0000 -0.0000
vt 0.000000 0.500000
vt 0.500000 0.500000
vt 0.500000 1.000000
vt 0.000000 1.000000
s 0
usemtl Material
f 77/77/20 78/78/20 80/79/20 79/80/20
o Wall.017
v 1279.999878 0.000000 -256.000000
v 1280.000122 0.000000 256.000000
v 1279.999878 512.000000 -256.000000
v 1280.000122 512.000000 256.000000
vn -1.0000 -0.0000 -0.0000
vt 0.000000 0.500000
vt 0.500000 0.500000
vt 0.500000 1.000000
vt 0.000000 1.000000
s 0
usemtl Material
f 81/81/21 82/82/21 84/83/21 83/84/21
o Wall.018
v 1279.999878 0.000000 -768.000000
v 1280.000122 0.000000 -256.000000
v 1279.999878 512.000000 -768.000000
v 1280.000122 512.000000 -256.000000
vn -1.0000 -0.0000 -0.0000
vt 0.000000 0.500000
vt 0.500000 0.500000
vt 0.500000 1.000000
vt 0.000000 1.000000
s 0
usemtl Material
f 85/85/22 86/86/22 88/87/22 87/88/22
o Floor
v -256.000000 0.000000 256.000000
v 256.000000 0.000000 256.000000
v -256.000000 0.000000 -256.000000
v 256.000000 0.000000 -256.000000
vn -0.0000 1.0000 -0.0000
vt 0.500000 0.000000
vt 1.000000 0.000000
vt 1.000000 0.500000
vt 0.500000 0.500000
s 0
usemtl Material
f 89/89/23 90/90/23 92/91/23 91/92/23
o Plane.001
v -768.000000 0.000000 256.000000
v -256.000000 0.000000 256.000000
v -768.000000 0.000000 -256.000000
v -256.000000 0.000000 -256.000000
vn -0.0000 1.0000 -0.0000
vt 0.500000 0.000000
vt 1.000000 0.000000
vt 1.000000 0.500000
vt 0.500000 0.500000
s 0
usemtl Material
f 93/93/24 94/94/24 96/95/24 95/96/24
o Plane.002
v 256.000000 0.000000 256.000000
v 768.000000 0.000000 256.000000
v 256.000000 0.000000 -256.000000
v 768.000000 0.000000 -256.000000
vn -0.0000 1.0000 -0.0000
vt 0.500000 0.000000
vt 1.000000 0.000000
vt 1.000000 0.500000
vt 0.500000 0.500000
s 0
usemtl Material
f 97/97/25 98/98/25 100/99/25 99/100/25
o Plane.003
v 768.000000 0.000000 256.000000
v 1280.000000 0.000000 256.000000
v 768.000000 0.000000 -256.000000
v 1280.000000 0.000000 -256.000000
vn -0.0000 1.0000 -0.0000
vt 0.500000 0.000000
vt 1.000000 0.000000
vt 1.000000 0.500000
vt 0.500000 0.500000
s 0
usemtl Material
f 101/101/26 102/102/26 104/103/26 103/104/26
o Plane.004
v -1280.000000 0.000000 256.000000
v -768.000000 0.000000 256.000000
v -1280.000000 0.000000 -256.000000
v -768.000000 0.000000 -256.000000
vn -0.0000 1.0000 -0.0000
vt 0.500000 0.000000
vt 1.000000 0.000000
vt 1.000000 0.500000
vt 0.500000 0.500000
s 0
usemtl Material
f 105/105/27 106/106/27 108/107/27 107/108/27
o Plane.005
v -256.000000 0.000000 -256.000000
v 256.000000 0.000000 -256.000000
v -256.000000 0.000000 -768.000000
v 256.000000 0.000000 -768.000000
vn -0.0000 1.0000 -0.0000
vt 0.500000 0.000000
vt 1.000000 0.000000
vt 1.000000 0.500000
vt 0.500000 0.500000
s 0
usemtl Material
f 109/109/28 110/110/28 112/111/28 111/112/28
o Plane.006
v -768.000000 0.000000 -256.000000
v -256.000000 0.000000 -256.000000
v -768.000000 0.000000 -768.000000
v -256.000000 0.000000 -768.000000
vn -0.0000 1.0000 -0.0000
vt 0.500000 0.000000
vt 1.000000 0.000000
vt 1.000000 0.500000
vt 0.500000 0.500000
s 0
usemtl Material
f 113/113/29 114/114/29 116/115/29 115/116/29
o Plane.007
v 256.000000 0.000000 -256.000000
v 768.000000 0.000000 -256.000000
v 256.000000 0.000000 -768.000000
v 768.000000 0.000000 -768.000000
vn -0.0000 1.0000 -0.0000
vt 0.500000 0.000000
vt 1.000000 0.000000
vt 1.000000 0.500000
vt 0.500000 0.500000
s 0
usemtl Material
f 117/117/30 118/118/30 120/119/30 119/120/30
o Plane.008
v 768.000000 0.000000 -256.000000
v 1280.000000 0.000000 -256.000000
v 768.000000 0.000000 -768.000000
v 1280.000000 0.000000 -768.000000
vn -0.0000 1.0000 -0.0000
vt 0.500000 0.000000
vt 1.000000 0.000000
vt 1.000000 0.500000
vt 0.500000 0.500000
s 0
usemtl Material
f 121/121/31 122/122/31 124/123/31 123/124/31
o Plane.009
v -1280.000000 0.000000 -256.000000
v -768.000000 0.000000 -256.000000
v -1280.000000 0.000000 -768.000000
v -768.000000 0.000000 -768.000000
vn -0.0000 1.0000 -0.0000
vt 0.500000 0.000000
vt 1.000000 0.000000
vt 1.000000 0.500000
vt 0.500000 0.500000
s 0
usemtl Material
f 125/125/32 126/126/32 128/127/32 127/128/32
o Plane.010
v -256.000000 0.000000 768.000000
v 256.000000 0.000000 768.000000
v -256.000000 0.000000 256.000000
v 256.000000 0.000000 256.000000
vn -0.0000 1.0000 -0.0000
vt 0.500000 0.000000
vt 1.000000 0.000000
vt 1.000000 0.500000
vt 0.500000 0.500000
s 0
usemtl Material
f 129/129/33 130/130/33 132/131/33 131/132/33
o Plane.011
v -768.000000 0.000000 768.000000
v -256.000000 0.000000 768.000000
v -768.000000 0.000000 256.000000
v -256.000000 0.000000 256.000000
vn -0.0000 1.0000 -0.0000
vt 0.500000 0.000000
vt 1.000000 0.000000
vt 1.000000 0.500000
vt 0.500000 0.500000
s 0
usemtl Material
f 133/133/34 134/134/34 136/135/34 135/136/34
o Plane.012
v 256.000000 0.000000 768.000000
v 768.000000 0.000000 768.000000
v 256.000000 0.000000 256.000000
v 768.000000 0.000000 256.000000
vn -0.0000 1.0000 -0.0000
vt 0.500000 0.000000
vt 1.000000 0.000000
vt 1.000000 0.500000
vt 0.500000 0.500000
s 0
usemtl Material
f 137/137/35 138/138/35 140/139/35 139/140/35
o Plane.013
v 768.000000 0.000000 768.000000
v 1280.000000 0.000000 768.000000
v 768.000000 0.000000 256.000000
v 1280.000000 0.000000 256.000000
vn -0.0000 1.0000 -0.0000
vt 0.500000 0.000000
vt 1.000000 0.000000
vt 1.000000 0.500000
vt 0.500000 0.500000
s 0
usemtl Material
f 141/141/36 142/142/36 144/143/36 143/144/36
o Plane.014
v -1280.000000 0.000000 768.000000
v -768.000000 0.000000 768.000000
v -1280.000000 0.000000 256.000000
v -768.000000 0.000000 256.000000
vn -0.0000 1.0000 -0.0000
vt 0.500000 0.000000
vt 1.000000 0.000000
vt 1.000000 0.500000
vt 0.500000 0.500000
s 0
usemtl Material
f 145/145/37 146/146/37 148/147/37 147/148/37
o Plane.015
v -256.000000 0.000000 1792.000000
v 256.000000 0.000000 1792.000000
v -256.000000 0.000000 1280.000000
v 256.000000 0.000000 1280.000000
vn -0.0000 1.0000 -0.0000
vt 0.500000 0.000000
vt 1.000000 0.000000
vt 1.000000 0.500000
vt 0.500000 0.500000
s 0
usemtl Material
f 149/149/38 150/150/38 152/151/38 151/152/38
o Plane.016
v -768.000000 0.000000 1792.000000
v -256.000000 0.000000 1792.000000
v -768.000000 0.000000 1280.000000
v -256.000000 0.000000 1280.000000
vn -0.0000 1.0000 -0.0000
vt 0.500000 0.000000
vt 1.000000 0.000000
vt 1.000000 0.500000
vt 0.500000 0.500000
s 0
usemtl Material
f 153/153/39 154/154/39 156/155/39 155/156/39
o Plane.017
v 256.000000 0.000000 1792.000000
v 768.000000 0.000000 1792.000000
v 256.000000 0.000000 1280.000000
v 768.000000 0.000000 1280.000000
vn -0.0000 1.0000 -0.0000
vt 0.500000 0.000000
vt 1.000000 0.000000
vt 1.000000 0.500000
vt 0.500000 0.500000
s 0
usemtl Material
f 157/157/40 158/158/40 160/159/40 159/160/40
o Plane.018
v 768.000000 0.000000 1792.000000
v 1280.000000 0.000000 1792.000000
v 768.000000 0.000000 1280.000000
v 1280.000000 0.000000 1280.000000
vn -0.0000 1.0000 -0.0000
vt 0.500000 0.000000
vt 1.000000 0.000000
vt 1.000000 0.500000
vt 0.500000 0.500000
s 0
usemtl Material
f 161/161/41 162/162/41 164/163/41 163/164/41
o Plane.019
v -1280.000000 0.000000 1792.000000
v -768.000000 0.000000 1792.000000
v -1280.000000 0.000000 1280.000000
v -768.000000 0.000000 1280.000000
vn -0.0000 1.0000 -0.0000
vt 0.500000 0.000000
vt 1.000000 0.000000
vt 1.000000 0.500000
vt 0.500000 0.500000
s 0
usemtl Material
f 165/165/42 166/166/42 168/167/42 167/168/42
o Plane.020
v -256.000000 0.000000 1280.000000
v 256.000000 0.000000 1280.000000
v -256.000000 0.000000 768.000000
v 256.000000 0.000000 768.000000
vn -0.0000 1.0000 -0.0000
vt 0.500000 0.000000
vt 1.000000 0.000000
vt 1.000000 0.500000
vt 0.500000 0.500000
s 0
usemtl Material
f 169/169/43 170/170/43 172/171/43 171/172/43
o Plane.021
v -768.000000 0.000000 1280.000000
v -256.000000 0.000000 1280.000000
v -768.000000 0.000000 768.000000
v -256.000000 0.000000 768.000000
vn -0.0000 1.0000 -0.0000
vt 0.500000 0.000000
vt 1.000000 0.000000
vt 1.000000 0.500000
vt 0.500000 0.500000
s 0
usemtl Material
f 173/173/44 174/174/44 176/175/44 175/176/44
o Plane.022
v 256.000000 0.000000 1280.000000
v 768.000000 0.000000 1280.000000
v 256.000000 0.000000 768.000000
v 768.000000 0.000000 768.000000
vn -0.0000 1.0000 -0.0000
vt 0.500000 0.000000
vt 1.000000 0.000000
vt 1.000000 0.500000
vt 0.500000 0.500000
s 0
usemtl Material
f 177/177/45 178/178/45 180/179/45 179/180/45
o Plane.023
v 768.000000 0.000000 1280.000000
v 1280.000000 0.000000 1280.000000
v 768.000000 0.000000 768.000000
v 1280.000000 0.000000 768.000000
vn -0.0000 1.0000 -0.0000
vt 0.500000 0.000000
vt 1.000000 0.000000
vt 1.000000 0.500000
vt 0.500000 0.500000
s 0
usemtl Material
f 181/181/46 182/182/46 184/183/46 183/184/46
o Plane.024
v -1280.000000 0.000000 1280.000000
v -768.000000 0.000000 1280.000000
v -1280.000000 0.000000 768.000000
v -768.000000 0.000000 768.000000
vn -0.0000 1.0000 -0.0000
vt 0.500000 0.000000
vt 1.000000 0.000000
vt 1.000000 0.500000
vt 0.500000 0.500000
s 0
usemtl Material
f 185/185/47 186/186/47 188/187/47 187/188/47
o Plane.025
v -256.000000 0.000000 2304.000000
v 256.000000 0.000000 2304.000000
v -256.000000 0.000000 1792.000000
v 256.000000 0.000000 1792.000000
vn -0.0000 1.0000 -0.0000
vt 0.500000 0.000000
vt 1.000000 0.000000
vt 1.000000 0.500000
vt 0.500000 0.500000
s 0
usemtl Material
f 189/189/48 190/190/48 192/191/48 191/192/48
o Plane.026
v -768.000000 0.000000 2304.000000
v -256.000000 0.000000 2304.000000
v -768.000000 0.000000 1792.000000
v -256.000000 0.000000 1792.000000
vn -0.0000 1.0000 -0.0000
vt 0.500000 0.000000
vt 1.000000 0.000000
vt 1.000000 0.500000
vt 0.500000 0.500000
s 0
usemtl Material
f 193/193/49 194/194/49 196/195/49 195/196/49
o Plane.027
v 256.000000 0.000000 2304.000000
v 768.000000 0.000000 2304.000000
v 256.000000 0.000000 1792.000000
v 768.000000 0.000000 1792.000000
vn -0.0000 1.0000 -0.0000
vt 0.500000 0.000000
vt 1.000000 0.000000
vt 1.000000 0.500000
vt 0.500000 0.500000
s 0
usemtl Material
f 197/197/50 198/198/50 200/199/50 199/200/50
o Plane.028
v 768.000000 0.000000 2304.000000
v 1280.000000 0.000000 2304.000000
v 768.000000 0.000000 1792.000000
v 1280.000000 0.000000 1792.000000
vn -0.0000 1.0000 -0.0000
vt 0.500000 0.000000
vt 1.000000 0.000000
vt 1.000000 0.500000
vt 0.500000 0.500000
s 0
usemtl Material
f 201/201/51 202/202/51 204/203/51 203/204/51
o Plane.029
v -1280.000000 0.000000 2304.000000
v -768.000000 0.000000 2304.000000
v -1280.000000 0.000000 1792.000000
v -768.000000 0.000000 1792.000000
vn -0.0000 1.0000 -0.0000
vt 0.500000 0.000000
vt 1.000000 0.000000
vt 1.000000 0.500000
vt 0.500000 0.500000
s 0
usemtl Material
f 205/205/52 206/206/52 208/207/52 207/208/52
